<?xml version="1.0" encoding="UTF-8"?><svg xmlns="http://www.w3.org/2000/svg" xmlns:xlink="http://www.w3.org/1999/xlink" fill="#7c8a80" height="914" preserveAspectRatio="xMidYMid meet" version="1" viewBox="36.6 75.0 1442.5 914.0" width="1442.5" zoomAndPan="magnify"><g id="change1_1"><path d="M 1474.699219 236.152344 C 1470.289062 228.371094 1427.011719 246.113281 1420.941406 247.035156 C 1414.859375 247.953125 1332.300781 244.316406 1307.140625 247.136719 C 1281.96875 249.957031 1268.941406 250.070312 1255.878906 246.703125 C 1242.820312 243.34375 1195.828125 234.1875 1180.171875 231.714844 C 1164.511719 229.242188 1091.050781 171.664062 1043.128906 155.570312 C 995.21875 139.472656 914.789062 80.21875 709.753906 77.625 C 504.714844 75.03125 313.941406 117.859375 222.277344 165.800781 C 222.277344 165.800781 172.441406 127.382812 131.179688 178.121094 C 114.703125 181.738281 109.574219 191.335938 110.464844 193.933594 C 111.355469 196.53125 127.035156 201.609375 127.035156 201.609375 C 127.035156 201.609375 131.511719 217.210938 133.292969 222.40625 C 84.09375 259.3125 59.644531 346.394531 52.089844 377.730469 C 44.539062 409.070312 36.59375 496.007812 48.289062 542.820312 C 59.980469 589.628906 69.90625 632.980469 60.5 650.433594 C 51.09375 667.890625 53.914062 693.058594 58.425781 713 C 62.941406 732.941406 73.566406 756.308594 69.371094 773.71875 C 65.175781 791.128906 45.433594 819.09375 42.027344 826.941406 C 38.617188 834.789062 43 839.097656 43 839.097656 C 43 839.097656 44.898438 858.191406 47.519531 859.90625 C 50.140625 861.621094 56.160156 854.621094 56.160156 854.621094 C 56.160156 854.621094 50.199219 868.570312 53.71875 873.753906 C 48.640625 889.433594 47.851562 898.996094 50.496094 903.316406 C 53.140625 907.636719 76.75 925.679688 100.230469 928.953125 C 104.597656 931.523438 105.382812 921.960938 105.382812 921.960938 C 105.382812 921.960938 119.335938 927.921875 126.238281 922.652344 C 133.144531 917.378906 133.878906 901.734375 124.144531 880.96875 C 129.3125 875.714844 128.363281 866.164062 127.398438 854.882812 C 126.433594 843.597656 128.867188 823.59375 128.617188 794.0625 C 128.496094 780.160156 146.324219 731.363281 154.003906 714.789062 C 161.679688 698.21875 185.71875 665.003906 192.617188 658.863281 C 199.515625 652.722656 231.511719 635.945312 246.207031 627.132812 C 260.898438 618.320312 268.714844 618.253906 281.804688 625.089844 C 294.894531 631.929688 382.976562 672.007812 382.976562 672.007812 C 382.976562 672.007812 385.996094 738.335938 402.761719 768.597656 C 419.523438 798.859375 431.324219 826.585938 427.136719 844.863281 C 422.949219 863.144531 416.933594 906.210938 422.144531 906.164062 C 423.109375 917.453125 434.542969 933.859375 437.128906 931.230469 C 439.710938 928.601562 444.773438 911.183594 444.773438 911.183594 C 444.773438 911.183594 444.914062 927.691406 449.265625 928.523438 C 451.0625 935.457031 448.351562 958.515625 452.71875 961.085938 C 457.085938 963.652344 504.867188 964.113281 506.566406 959.757812 C 515.269531 961.417969 530.890625 959.546875 529.976562 954.34375 C 529.0625 949.140625 522.175781 920.949219 509.976562 916.710938 C 510.71875 901.9375 505.714844 891.105469 500.40625 879.855469 C 495.097656 868.609375 494.074219 850.375 486.953125 830.453125 C 479.835938 810.535156 477.242188 724.195312 476.152344 698.140625 C 510.988281 708.269531 589.988281 702.382812 653.289062 688.8125 C 681.480469 734.613281 686.988281 769.3125 693.203125 784.898438 C 699.414062 800.480469 715.230469 821.195312 711.882812 835.992188 C 708.53125 850.789062 699.199219 876.929688 697.839844 921.246094 C 697.046875 929.941406 701.382812 929.035156 701.382812 929.035156 C 701.382812 929.035156 715.523438 957.582031 719.855469 955.808594 C 724.183594 954.03125 725.851562 946.199219 725.851562 946.199219 C 725.851562 946.199219 727.679688 956.609375 731.152344 956.578125 C 732.105469 966.128906 733.085938 979.148438 737.457031 982.585938 C 741.828125 986.023438 800.058594 989.003906 810.429688 982.832031 C 826.957031 985.296875 839.972656 983.449219 835.546875 973.929688 C 831.121094 964.414062 817.039062 942.816406 811.796875 939.386719 C 814.320312 929.808594 809.019531 919.429688 801.960938 906.457031 C 794.898438 893.488281 782.339844 846.683594 784.789062 828.421875 C 787.238281 810.15625 795.652344 777.941406 800.640625 751.839844 C 805.628906 725.734375 812.460938 711.777344 822.425781 657.832031 C 823.226562 650.007812 847.355469 627.214844 847.355469 627.214844 C 847.355469 627.214844 869.109375 631.371094 887.492188 647.722656 C 905.875 664.070312 939.097656 688.980469 950.5625 708.859375 C 962.023438 728.742188 993.460938 747.585938 993.695312 775.382812 C 993.933594 803.179688 989.65625 811.035156 979.300781 818.941406 C 968.941406 826.847656 955.980469 834.777344 959.496094 839.960938 C 950.976562 859.144531 952.785156 867.816406 956.277344 869.523438 C 959.765625 871.230469 977.011719 856.316406 977.011719 856.316406 L 984.808594 853.644531 C 984.808594 853.644531 964.976562 871.1875 972.082031 889.371094 C 960.9375 906.839844 956.652344 913.824219 958.449219 920.761719 C 960.246094 927.695312 998.921875 980.355469 1016.96875 957.613281 C 1030.070312 965.320312 1044.761719 956.507812 1039.179688 913.988281 C 1046.851562 896.550781 1063.871094 854.707031 1061.96875 835.609375 C 1060.070312 816.515625 1068.578125 796.460938 1077.96875 776.402344 C 1087.351562 756.339844 1091.628906 748.484375 1072.101562 699.136719 C 1069.410156 689.605469 1069.921875 647.03125 1069.921875 647.03125 C 1069.921875 647.03125 1100.390625 655.460938 1144.648438 649.871094 C 1188.910156 644.277344 1198.449219 642.460938 1205.398438 643.269531 C 1212.359375 644.078125 1307.058594 645.878906 1325.308594 646.589844 C 1343.558594 647.304688 1366.929688 637.546875 1374.539062 613.15625 C 1389.308594 613.03125 1396.25 612.105469 1395.269531 598.214844 C 1394.28125 584.320312 1396.628906 553.898438 1400 541.707031 C 1403.371094 529.515625 1392.808594 513.96875 1365.089844 523.761719 C 1361.550781 515.105469 1352.859375 515.179688 1349.390625 516.078125 C 1348.449219 507.398438 1338.839844 501.398438 1331.890625 500.589844 C 1325.738281 492.824219 1313.429688 475.554688 1308.140625 466.046875 C 1302.839844 456.535156 1293.839844 420.125 1293.839844 420.125 C 1293.839844 420.125 1300.601562 397.480469 1290.121094 390.621094 C 1289.171875 381.070312 1289.960938 372.378906 1289.960938 372.378906 C 1289.960938 372.378906 1364.5 351.761719 1405.851562 311.449219 C 1447.199219 271.132812 1479.109375 243.933594 1474.699219 236.152344 Z M 168.691406 196.914062 L 163.460938 194.351562 C 163.460938 194.351562 174.683594 186.4375 181.648438 188.113281 L 168.691406 196.914062" fill="inherit"/></g></svg>