<?xml version="1.0" encoding="UTF-8"?><svg xmlns="http://www.w3.org/2000/svg" xmlns:xlink="http://www.w3.org/1999/xlink" fill="#7c8a80" height="185.4" preserveAspectRatio="xMidYMid meet" version="1" viewBox="0.0 -0.4 167.3 185.4" width="167.3" zoomAndPan="magnify"><g fill="none" fill-rule="evenodd"><g fill="#7c8a80" id="change1_1"><path d="M43.73027,179 L124.26973,179 C124.0949,178.49073 124,177.94432 124,177.37575 L124,169.85645 C114.18331,171.82406 103.7834,167.46869 98.5,158.31758 L90,143.59515 C101.47902,136.96773 116.15719,140.90073 122.78461,152.37976 L124,154.48487 L124,130.18978 C114.18331,132.15739 103.7834,127.80202 98.5,118.65091 L90,103.92848 C101.47902,97.30106 116.15719,101.23407 122.78461,112.71309 L124,114.81821 L124,90.52311 C114.18331,92.49073 103.7834,88.13536 98.5,78.98424 L90,64.26181 C101.47902,57.6344 116.15719,61.5674 122.78461,73.04642 L124,75.15154 L124,50.85645 C114.18331,52.82406 103.7834,48.46869 98.5,39.31758 L90,24.59515 C99.62899,19.03585 111.50903,20.9073 119,28.43028 L119,19.37575 C119,15.56542 121.47911,9.58707 126.43734,1.44069 C127.29877,0.02538 129.14443,-0.42364 130.55974,0.43778 C130.9694,0.68712 131.31332,1.03103 131.56266,1.44069 C136.52089,9.58707 139,15.56542 139,19.37575 L139,27.74119 C146.51635,20.79753 157.95672,19.20968 167.28461,24.59515 L158.78461,39.31758 C153.62938,48.24669 143.60288,52.60992 134,50.9885 L134,73.91245 L134.5,73.04642 C141.12742,61.5674 155.80559,57.6344 167.28461,64.26181 L158.78461,78.98424 C153.62938,87.91336 143.60288,92.27659 134,90.65517 L134,113.57911 L134.5,112.71309 C141.12742,101.23407 155.80559,97.30106 167.28461,103.92848 L158.78461,118.65091 C153.62938,127.58002 143.60288,131.94325 134,130.32184 L134,153.24578 L134.5,152.37976 C141.12742,140.90073 155.80559,136.96773 167.28461,143.59515 L158.78461,158.31758 C153.62938,167.24669 143.60288,171.60992 134,169.9885 L134,177.37575 C134,177.94432 133.9051,178.49073 133.73027,179 L164,179 C165.65685,179 167,180.34315 167,182 C167,183.65685 165.65685,185 164,185 L3,185 C1.34315,185 0,183.65685 0,182 C0,180.34315 1.34315,179 3,179 L34.26973,179 C34.0949,178.49073 34,177.94432 34,177.37575 L34,169.85645 C24.18331,171.82406 13.7834,167.46869 8.5,158.31758 L0,143.59515 C11.47902,136.96773 26.15719,140.90073 32.78461,152.37976 L34,154.48487 L34,130.18978 C24.18331,132.15739 13.7834,127.80202 8.5,118.65091 L0,103.92848 C11.47902,97.30106 26.15719,101.23407 32.78461,112.71309 L34,114.81821 L34,90.52311 C24.18331,92.49073 13.7834,88.13536 8.5,78.98424 L0,64.26181 C11.47902,57.6344 26.15719,61.5674 32.78461,73.04642 L34,75.15154 L34,50.85645 C24.18331,52.82406 13.7834,48.46869 8.5,39.31758 L0,24.59515 C9.62899,19.03585 21.50903,20.9073 29,28.43028 L29,19.37575 C29,15.56542 31.47911,9.58707 36.43734,1.44069 C37.29877,0.02538 39.14443,-0.42364 40.55974,0.43778 C40.9694,0.68712 41.31332,1.03103 41.56266,1.44069 C46.52089,9.58707 49,15.56542 49,19.37575 L49,27.74119 C56.51635,20.79753 67.95672,19.20968 77.28461,24.59515 L68.78461,39.31758 C63.62938,48.24669 53.60288,52.60992 44,50.9885 L44,73.91245 L44.5,73.04642 C51.12742,61.5674 65.80559,57.6344 77.28461,64.26181 L68.78461,78.98424 C63.62938,87.91336 53.60288,92.27659 44,90.65517 L44,113.57911 L44.5,112.71309 C51.12742,101.23407 65.80559,97.30106 77.28461,103.92848 L68.78461,118.65091 C63.62938,127.58002 53.60288,131.94325 44,130.32184 L44,153.24578 L44.5,152.37976 C51.12742,140.90073 65.80559,136.96773 77.28461,143.59515 L68.78461,158.31758 C63.62938,167.24669 53.60288,171.60992 44,169.9885 L44,177.37575 C44,177.94432 43.9051,178.49073 43.73027,179 Z" fill="inherit"/></g></g></svg>