<?xml version="1.0" encoding="UTF-8"?><svg xmlns="http://www.w3.org/2000/svg" xmlns:xlink="http://www.w3.org/1999/xlink" data-name="Layer 3" fill="#cdfaba" height="27.5" preserveAspectRatio="xMidYMid meet" version="1" viewBox="10.3 10.3 27.5 27.5" width="27.5" zoomAndPan="magnify"><g id="change1_1"><circle cx="24" cy="20" fill="inherit" r="4.25"/></g><g id="change1_2"><path d="M24,10.25A13.75,13.75,0,1,0,37.75,24,13.7656,13.7656,0,0,0,24,10.25Zm7.0381,21.5957a.7586.7586,0,0,1-.8394-.6484,6.2505,6.2505,0,0,0-12.3974,0,.75.75,0,0,1-1.4883-.1914,7.7512,7.7512,0,0,1,4.6559-6.1288,5.75,5.75,0,1,1,6.0622,0,7.7512,7.7512,0,0,1,4.6559,6.1288A.7507.7507,0,0,1,31.0381,31.8457Z" fill="inherit"/></g></svg>