<?xml version="1.0" encoding="UTF-8"?><svg xmlns="http://www.w3.org/2000/svg" xmlns:xlink="http://www.w3.org/1999/xlink" fill="#000000" height="560.6" preserveAspectRatio="xMidYMid meet" version="1" viewBox="0.0 0.0 360.6 560.6" width="360.6" zoomAndPan="magnify"><g id="change1_1"><path d="M218.8,248.5c-7.1-13.2-19.3-29.8-35.2-49.4s-28.1-23.3-58.2-38.6S0,138.2,0,152.8c0,24.4,23.7,39.9,49,61.9 s31.5,36.9,62,45.7c30.5,8.8,101.5,3.4,101.5,3.4s6.4,16.2,11.2,25s20,51.8,20,51.8l-11.2,1.7c-17.9,1.7-25.7,22-28.8,35.5 s12.9,29.8,23,34.2l20.9,9c0,0,0.8,42.3,2.1,67.7c2.2,42.8,19.1,71.9,19.1,71.9h11.6l-7.6-43.4l-14.6-91c60.3,16.9,86.8,0,86.8,0 c13.8-75.1-8.5-99.4-29.2-102.6s-23.9,2.9-41.7,10.6c-8,3.5-20.1,5.2-20.1,5.2l-3.2-88.8c0,0,21.2-19,45.6-27.5s32.6-60.3,36.9-78.3 s21.1-71.8,24.2-85.6s0-59.2,0-59.2s-13.8,5.3-41.9,27.5s-70.3,111-76.6,161.8s-5.3,88.8-5.3,88.8S226,261.7,218.8,248.5 L218.8,248.5z" fill="#ffffff"/></g></svg>