<?xml version="1.0" encoding="UTF-8"?><svg xmlns="http://www.w3.org/2000/svg" xmlns:xlink="http://www.w3.org/1999/xlink" fill="#7c8a80" height="60" preserveAspectRatio="xMidYMid meet" version="1" viewBox="3.0 3.0 58.0 60.0" width="58" zoomAndPan="magnify"><g id="change1_1"><path d="M34.034,27c0.149-6.654,1.765-13.215,4.752-19.192l-0.444-0.889C37.133,4.502,34.702,3,32,3s-5.133,1.502-6.342,3.919 l-0.444,0.889c2.988,5.977,4.603,12.539,4.752,19.192H34.034z M31,7h2v16h-2V7z" fill="inherit"/><path d="M47,30c0-0.552-0.448-1-1-1H18c-0.552,0-1,0.448-1,1s0.448,1,1,1h28C46.552,31,47,30.552,47,30z" fill="inherit"/><path d="M11.595,14.937l4.122,2.002c4.106,1.994,6.998,5.719,7.914,10.062h4.336c-0.172-7.328-2.209-14.538-5.958-20.912 C20.888,4.184,18.783,3,16.516,3h-1.995c-1.862,0-3.641,0.772-4.877,2.12c-1.194,1.301-1.77,2.972-1.621,4.705 C8.209,11.997,9.577,13.956,11.595,14.937z M13.447,6.105c5.398,2.7,9.422,7.339,11.329,13.063l1.172,3.515l-1.896,0.633 l-1.172-3.515c-1.739-5.218-5.406-9.446-10.327-11.907L13.447,6.105z" fill="inherit"/><path d="M40.369,27c0.916-4.342,3.807-8.067,7.914-10.062l4.123-2.002c2.017-0.98,3.385-2.939,3.571-5.111 c0.148-1.733-0.427-3.404-1.621-4.705C53.12,3.772,51.342,3,49.479,3h-1.995c-2.268,0-4.372,1.184-5.492,3.088 C38.243,12.462,36.206,19.672,36.034,27H40.369z M50.553,6.105l0.895,1.789c-4.921,2.461-8.588,6.689-10.327,11.907l-1.172,3.515 l-1.896-0.633l1.172-3.515C41.131,13.444,45.154,8.806,50.553,6.105z" fill="inherit"/><path d="M44.153 37L44.82 33 19.18 33 19.847 37z" fill="inherit"/><path d="M25.153,43H21.22l1.117,5.588C22.616,49.985,23.854,51,25.279,51h13.441c1.426,0,2.663-1.015,2.942-2.412L42.78,43h-3.933 l-0.861,5.164l-1.973-0.328L36.82,43H33v5h-2v-5h-3.82l0.806,4.836l-1.973,0.328L25.153,43z" fill="inherit"/><path d="M60,39H4c-0.552,0-1,0.448-1,1s0.448,1,1,1h56c0.552,0,1-0.448,1-1S60.552,39,60,39z" fill="inherit"/><path d="M43.316,56.052L38,54.28V53h-2v3.465l-2.555,1.703C33.167,58.354,33,58.666,33,59v4h2v-3.465l2.555-1.703 C37.833,57.646,38,57.334,38,57v-0.613l4,1.334V61h2v-4C44,56.569,43.725,56.188,43.316,56.052z" fill="inherit"/><path d="M31 53H33V57H31z" fill="inherit"/><path d="M30.555,58.168L28,56.465V53h-2v1.28l-5.316,1.772C20.275,56.188,20,56.569,20,57v4h2v-3.279l4-1.334V57 c0,0.334,0.167,0.646,0.445,0.832L29,59.535V63h2v-4C31,58.666,30.833,58.354,30.555,58.168z" fill="inherit"/></g></svg>