<?xml version="1.0" encoding="UTF-8"?><svg xmlns="http://www.w3.org/2000/svg" xmlns:xlink="http://www.w3.org/1999/xlink" fill="#ffffff" height="13" preserveAspectRatio="xMidYMid meet" version="1" viewBox="1.0 1.0 13.0 13.0" width="13" zoomAndPan="magnify"><g id="change1_1"><path d="M 7.5 1 C 3.917969 1 1 3.917969 1 7.5 C 1 11.082031 3.917969 14 7.5 14 C 11.082031 14 14 11.082031 14 7.5 C 14 3.917969 11.082031 1 7.5 1 Z M 7.5 2 C 10.542969 2 13 4.457031 13 7.5 C 13 10.542969 10.542969 13 7.5 13 C 4.457031 13 2 10.542969 2 7.5 C 2 4.457031 4.457031 2 7.5 2 Z M 5 4 L 5 11 L 6 11 L 6 9 L 7.25 9 L 8.726563 11 L 9.96875 11 L 8.367188 8.835938 C 9.316406 8.476563 10 7.570313 10 6.5 C 10 5.125 8.875 4 7.5 4 Z M 6 5 L 7.5 5 C 8.335938 5 9 5.664063 9 6.5 C 9 7.335938 8.335938 8 7.5 8 L 6 8 Z" fill="inherit"/></g></svg>