<?xml version="1.0" encoding="UTF-8"?><svg xmlns="http://www.w3.org/2000/svg" xmlns:xlink="http://www.w3.org/1999/xlink" fill="#000000" height="539.9" preserveAspectRatio="xMidYMid meet" version="1" viewBox="90.7 27.8 414.8 539.9" width="414.8" zoomAndPan="magnify"><g id="change1_1"><path d="M 346.042969 475.609375 C 346.042969 475.609375 343.042969 497.746094 340.789062 499.625 C 338.539062 501.5 332.160156 507.878906 329.160156 508.628906 C 326.15625 509.378906 317.152344 510.128906 313.023438 509.753906 C 313.023438 509.753906 301.769531 510.503906 302.894531 507.878906 C 304.019531 505.25 314.527344 479.738281 317.527344 477.113281 C 320.527344 474.484375 324.65625 472.234375 326.90625 471.484375 C 329.160156 470.734375 337.039062 464.730469 340.039062 459.101562 C 340.039062 459.101562 343.792969 456.851562 346.042969 458.351562 C 348.296875 459.851562 346.042969 475.609375 346.042969 475.609375 Z M 503.441406 230.414062 C 503.816406 227.414062 502.878906 220.660156 501.941406 219.347656 C 501.003906 218.03125 501.941406 213.90625 502.128906 210.152344 C 502.316406 206.402344 498.1875 199.460938 497.0625 198.148438 C 495.9375 196.835938 496.5 188.203125 496.5 185.953125 C 496.5 183.703125 497.625 179.574219 499.128906 177.136719 C 500.628906 174.695312 501.753906 164.378906 500.0625 162.691406 C 498.375 161.003906 496.5 159.875 496.5 157.8125 C 496.5 155.75 499.128906 150.871094 500.0625 148.808594 C 501.003906 146.742188 504.378906 137.175781 504.378906 134.175781 C 504.378906 131.171875 500.441406 129.859375 498.9375 127.046875 C 497.4375 124.230469 499.878906 121.605469 501.191406 118.605469 C 502.503906 115.601562 496.125 111.664062 494.0625 110.160156 C 491.996094 108.660156 490.871094 106.222656 489.183594 101.34375 C 487.496094 96.46875 479.992188 94.777344 479.054688 91.777344 C 478.113281 88.773438 474.738281 85.585938 472.675781 84.835938 C 470.609375 84.085938 470.609375 83.335938 470.609375 83.335938 C 470.609375 74.703125 462.167969 79.394531 462.730469 75.453125 C 463.296875 71.515625 457.101562 70.953125 452.226562 71.703125 C 447.347656 72.453125 446.785156 70.390625 446.785156 70.390625 C 446.222656 59.695312 428.589844 55.007812 412.265625 69.078125 C 395.945312 83.148438 392.757812 112.601562 391.253906 114.476562 C 389.753906 116.351562 390.878906 126.109375 388.441406 129.109375 C 386.003906 132.109375 386.378906 146.742188 385.628906 152.371094 C 384.878906 158 375.683594 170.757812 371.558594 175.070312 C 367.429688 179.386719 352.984375 189.328125 346.042969 190.457031 C 339.101562 191.582031 287.324219 195.519531 276.253906 192.332031 C 265.1875 189.140625 258.996094 179.761719 249.238281 167.382812 C 239.484375 155 231.417969 134.175781 230.292969 130.609375 C 229.167969 127.046875 217.722656 106.222656 215.660156 102.84375 C 213.597656 99.46875 203.464844 87.835938 199.527344 83.898438 C 195.585938 79.957031 188.832031 73.953125 183.578125 70.203125 C 178.328125 66.449219 166.320312 60.636719 163.132812 58.757812 C 159.941406 56.882812 163.132812 54.632812 163.132812 54.632812 C 168.757812 53.695312 171.199219 50.503906 170.824219 47.128906 C 170.449219 43.75 168.007812 43.9375 167.820312 40.375 C 167.632812 36.808594 164.070312 36.996094 162.757812 38.121094 C 161.441406 39.246094 159.191406 41.3125 157.503906 40.75 C 155.8125 40.1875 156.566406 30.992188 155.253906 30.804688 C 153.9375 30.617188 153 40.9375 151.5 40.9375 C 150 40.9375 150.1875 36.433594 149.0625 34.371094 C 147.933594 32.308594 146.621094 34.183594 144.933594 39.621094 C 143.246094 45.0625 140.617188 41.3125 139.867188 40.1875 C 139.117188 39.0625 134.054688 28.929688 132.175781 28.367188 C 130.300781 27.804688 133.304688 40 131.800781 41.6875 C 130.300781 43.375 126.925781 35.683594 123.734375 34.558594 C 120.546875 33.433594 125.796875 45.8125 123.171875 46.941406 C 120.546875 48.066406 118.480469 44.3125 117.167969 43 C 115.855469 41.6875 116.605469 49.566406 116.605469 52.003906 C 116.605469 54.445312 116.605469 55.382812 112.664062 53.882812 C 108.726562 52.382812 110.601562 60.070312 108.914062 59.132812 C 107.226562 58.195312 108.726562 65.136719 108.726562 69.265625 C 108.726562 73.390625 105.914062 74.894531 103.660156 74.140625 C 101.410156 73.390625 103.472656 80.894531 103.472656 80.894531 C 103.472656 80.894531 103.847656 82.773438 101.785156 83.710938 C 99.722656 84.648438 93.71875 88.964844 92.96875 89.902344 C 92.21875 90.839844 91.09375 94.589844 90.90625 96.84375 C 90.71875 99.09375 97.84375 97.78125 98.597656 97.40625 C 99.347656 97.03125 107.414062 93.652344 111.164062 94.589844 C 114.917969 95.527344 115.667969 96.28125 115.105469 98.34375 C 114.542969 100.40625 110.789062 104.722656 113.417969 114.851562 C 116.042969 124.980469 127.863281 131.550781 133.679688 131.925781 C 139.492188 132.300781 141.746094 128.171875 142.308594 127.046875 C 142.871094 125.921875 144.558594 123.855469 147.183594 126.484375 C 149.8125 129.109375 150 136.238281 150 138.300781 C 150 140.367188 146.808594 145.617188 146.621094 152.746094 C 146.433594 159.875 143.996094 179.199219 143.996094 182.574219 C 143.996094 185.953125 139.492188 208.089844 136.304688 215.96875 C 133.113281 223.847656 129.363281 242.046875 129.738281 246.359375 C 130.113281 250.675781 128.425781 259.679688 124.296875 291.949219 C 120.171875 324.214844 131.238281 340.910156 134.429688 346.726562 C 137.617188 352.542969 161.628906 378.621094 168.007812 382.183594 C 174.386719 385.75 188.269531 383.496094 194.648438 390.253906 C 201.027344 397.007812 209.28125 396.066406 215.847656 402.820312 C 222.414062 409.574219 232.355469 414.265625 235.171875 415.953125 C 237.984375 417.640625 247.363281 424.769531 251.867188 430.960938 C 256.367188 437.152344 262.183594 441.84375 265.375 442.96875 C 268.5625 444.09375 268 445.59375 267.625 451.410156 C 267.25 457.226562 272.878906 462.855469 277.757812 465.105469 C 282.632812 467.355469 287.511719 467.542969 292.390625 470.734375 C 297.265625 473.921875 297.078125 475.046875 297.640625 478.613281 C 298.203125 482.175781 291.449219 501.875 290.136719 504.875 C 288.824219 507.878906 276.066406 534.894531 274.566406 536.769531 C 273.066406 538.644531 272.128906 544.085938 271.566406 544.648438 C 271.003906 545.210938 267.0625 544.273438 265.75 544.085938 C 264.4375 543.898438 256.746094 542.023438 254.304688 540.894531 C 251.867188 539.769531 247.550781 538.644531 245.863281 538.457031 C 244.175781 538.269531 240.984375 539.582031 239.859375 539.957031 C 238.734375 540.332031 237.984375 542.023438 237.984375 542.023438 L 239.484375 542.023438 C 239.484375 542.023438 240.234375 542.960938 241.359375 543.523438 C 242.488281 544.085938 250.179688 544.273438 251.492188 544.835938 C 252.804688 545.398438 256.933594 547.835938 256.558594 548.585938 C 256.183594 549.339844 241.925781 550.277344 236.859375 550.089844 C 231.792969 549.902344 224.101562 550.839844 221.101562 550.839844 C 218.097656 550.839844 217.347656 553.464844 213.785156 554.59375 C 210.21875 555.71875 209.09375 558.34375 209.09375 558.34375 C 209.09375 558.34375 212.65625 557.59375 213.785156 558.15625 C 214.910156 558.71875 217.722656 559.46875 219.222656 559.09375 C 220.726562 558.71875 228.980469 558.90625 235.734375 558.71875 C 242.488281 558.53125 254.304688 558.71875 257.683594 558.90625 C 261.058594 559.09375 268.9375 554.027344 267.625 555.34375 C 266.3125 556.65625 265.9375 560.59375 266.875 563.222656 C 267.8125 565.847656 269.6875 567.722656 270.0625 566.597656 C 270.4375 565.472656 271.191406 563.597656 272.503906 563.03125 C 273.816406 562.46875 281.882812 554.214844 283.757812 553.089844 C 285.636719 551.964844 291.265625 549.152344 292.953125 548.777344 C 294.640625 548.398438 302.144531 550.652344 305.710938 551.589844 C 309.273438 552.527344 312.273438 551.777344 312.460938 551.027344 C 312.648438 550.277344 318.277344 551.589844 318.464844 550.652344 C 318.652344 549.714844 316.027344 549.152344 315.089844 548.777344 C 314.152344 548.398438 311.335938 547.835938 306.460938 546.335938 C 301.582031 544.835938 298.015625 541.832031 296.515625 539.957031 C 295.015625 538.082031 295.203125 534.144531 297.453125 524.949219 C 299.707031 515.757812 301.769531 513.695312 301.769531 513.695312 C 303.457031 513.320312 304.957031 514.257812 306.460938 514.820312 C 307.960938 515.382812 323.71875 516.132812 325.96875 515.945312 C 328.222656 515.757812 335.539062 514.070312 335.160156 515.570312 C 334.785156 517.070312 331.222656 520.074219 328.597656 521.949219 C 325.96875 523.824219 321.28125 526.261719 316.964844 527.574219 C 312.648438 528.890625 308.335938 532.078125 307.023438 532.640625 C 305.710938 533.203125 304.582031 534.894531 302.332031 536.207031 C 300.082031 537.519531 301.019531 541.832031 301.019531 541.832031 C 301.019531 541.832031 302.332031 539.394531 304.019531 539.582031 C 305.710938 539.769531 308.523438 539.207031 310.585938 539.019531 C 312.648438 538.832031 315.652344 534.519531 320.34375 533.765625 C 325.03125 533.015625 328.222656 531.328125 334.410156 528.703125 C 340.601562 526.074219 345.667969 521.011719 347.542969 519.320312 C 349.421875 517.632812 359.175781 518.945312 361.238281 518.382812 C 363.304688 517.820312 366.492188 522.324219 367.617188 525.136719 C 368.742188 527.953125 370.433594 531.890625 372.121094 532.640625 C 373.808594 533.390625 373.246094 536.957031 373.808594 536.957031 C 374.371094 536.957031 376.058594 536.957031 376.433594 534.519531 C 376.808594 532.078125 369.117188 504.5 368.367188 500 C 367.617188 495.496094 371.746094 495.308594 375.308594 496.433594 C 378.875 497.558594 381.5 497.558594 383.75 497.183594 C 386.003906 496.808594 390.878906 497.746094 390.878906 496.996094 C 390.878906 496.246094 387.503906 494.933594 385.628906 494.558594 C 383.75 494.183594 375.308594 491.558594 371.746094 490.054688 C 368.179688 488.554688 366.492188 486.492188 364.617188 481.988281 C 362.738281 477.488281 360.113281 456.289062 361.238281 452.160156 C 362.363281 448.03125 373.621094 449.910156 385.628906 448.597656 C 397.632812 447.28125 412.828125 439.027344 428.023438 428.710938 C 443.222656 418.390625 453.539062 400.945312 459.355469 391.566406 C 465.171875 382.183594 476.238281 357.046875 475.863281 345.226562 C 475.488281 333.40625 472.113281 324.214844 471.925781 323.089844 C 471.738281 321.964844 470.046875 319.714844 468.734375 314.460938 C 467.421875 309.207031 469.296875 305.832031 469.859375 304.140625 C 470.425781 302.453125 481.117188 289.320312 483.742188 286.695312 C 486.371094 284.070312 486.371094 270 486.371094 267.933594 C 486.371094 265.871094 487.308594 251.800781 488.621094 251.800781 C 489.933594 251.800781 496.125 249.925781 500.816406 243.921875 C 505.503906 237.917969 503.066406 233.414062 503.441406 230.414062" fill="#7c8a80"/></g></svg>