<?xml version="1.0" encoding="UTF-8"?><svg xmlns="http://www.w3.org/2000/svg" xmlns:xlink="http://www.w3.org/1999/xlink" fill="#000000" height="42.8" preserveAspectRatio="xMidYMid meet" version="1" viewBox="0.0 0.0 44.0 42.8" width="44" zoomAndPan="magnify"><defs><clipPath id="a"><path d="M 0 0 L 44 0 L 44 42.769531 L 0 42.769531 Z M 0 0"/></clipPath></defs><g><g clip-path="url(#a)" id="change1_1"><path d="M 39.050781 31.535156 C 39.050781 31.433594 38.964844 31.347656 38.859375 31.347656 L 37.617188 31.347656 C 37.515625 31.347656 37.429688 31.433594 37.429688 31.535156 C 37.429688 31.640625 37.515625 31.726562 37.617188 31.726562 L 38.859375 31.726562 C 38.90625 31.726562 38.949219 31.707031 38.984375 31.675781 C 39.023438 31.644531 39.050781 31.59375 39.050781 31.535156 Z M 39.050781 32.703125 C 39.050781 32.601562 38.964844 32.515625 38.859375 32.515625 L 37.617188 32.515625 C 37.515625 32.515625 37.429688 32.601562 37.429688 32.703125 C 37.429688 32.808594 37.515625 32.894531 37.617188 32.894531 L 38.859375 32.894531 C 38.964844 32.894531 39.050781 32.808594 39.050781 32.703125 Z M 39.050781 33.871094 C 39.050781 33.769531 38.964844 33.683594 38.859375 33.683594 L 37.617188 33.683594 C 37.515625 33.683594 37.429688 33.769531 37.429688 33.871094 C 37.429688 33.976562 37.515625 34.0625 37.617188 34.0625 L 38.859375 34.0625 C 38.964844 34.0625 39.050781 33.976562 39.050781 33.871094 Z M 39.050781 35.042969 C 39.050781 34.984375 39.023438 34.933594 38.984375 34.902344 C 38.949219 34.871094 38.90625 34.851562 38.859375 34.851562 L 37.617188 34.851562 C 37.515625 34.851562 37.429688 34.9375 37.429688 35.042969 C 37.429688 35.097656 37.453125 35.144531 37.488281 35.179688 C 37.523438 35.207031 37.570312 35.230469 37.617188 35.230469 L 38.859375 35.230469 C 38.964844 35.230469 39.050781 35.144531 39.050781 35.042969 Z M 36.648438 35.042969 C 36.648438 34.820312 36.722656 34.621094 36.847656 34.457031 C 36.722656 34.292969 36.648438 34.09375 36.648438 33.871094 C 36.648438 33.652344 36.722656 33.453125 36.847656 33.289062 C 36.722656 33.125 36.648438 32.925781 36.648438 32.703125 C 36.648438 32.484375 36.722656 32.285156 36.847656 32.121094 C 36.722656 31.957031 36.648438 31.757812 36.648438 31.535156 C 36.648438 31.496094 36.652344 31.460938 36.65625 31.425781 L 36.265625 32.269531 C 36.199219 32.414062 36.054688 32.496094 35.910156 32.496094 C 35.851562 32.496094 35.796875 32.484375 35.742188 32.460938 C 35.582031 32.382812 35.503906 32.210938 35.53125 32.039062 C 35.535156 32.007812 35.539062 31.972656 35.554688 31.941406 L 36.515625 29.878906 C 36.539062 29.828125 36.527344 29.773438 36.515625 29.734375 C 36.480469 29.644531 36.398438 29.5625 36.292969 29.511719 C 36.191406 29.464844 36.074219 29.457031 35.984375 29.488281 C 35.949219 29.503906 35.898438 29.527344 35.875 29.578125 L 34.867188 31.742188 L 34.789062 31.914062 L 34.757812 31.984375 C 34.722656 32.085938 34.699219 32.195312 34.699219 32.308594 L 34.699219 34.265625 C 34.699219 34.839844 35.167969 35.308594 35.746094 35.308594 L 36.691406 35.308594 C 36.664062 35.222656 36.648438 35.132812 36.648438 35.039062 Z M 7.597656 11.644531 C 7.601562 12.070312 7.765625 12.472656 8.070312 12.769531 L 9.078125 13.769531 C 9.265625 13.953125 9.484375 14.074219 9.71875 14.148438 C 9.847656 14.1875 9.980469 14.210938 10.117188 14.21875 C 10.246094 14.226562 10.378906 14.222656 10.507812 14.195312 C 10.648438 14.171875 10.785156 14.117188 10.914062 14.050781 C 11.027344 13.992188 11.136719 13.921875 11.234375 13.835938 C 11.269531 13.804688 11.304688 13.785156 11.335938 13.753906 L 11.496094 13.59375 L 11.59375 13.492188 L 13.253906 11.816406 C 13.285156 11.78125 13.289062 11.742188 13.289062 11.71875 C 13.289062 11.699219 13.285156 11.660156 13.25 11.625 C 13.210938 11.589844 13.136719 11.554688 13.0625 11.535156 L 12.261719 12.285156 C 12.15625 12.386719 12.027344 12.453125 11.894531 12.492188 C 11.820312 12.515625 11.746094 12.527344 11.667969 12.53125 C 11.65625 12.53125 11.648438 12.535156 11.636719 12.535156 C 11.625 12.535156 11.613281 12.535156 11.605469 12.535156 C 11.566406 12.53125 11.527344 12.527344 11.492188 12.519531 C 11.378906 12.5 11.273438 12.460938 11.171875 12.40625 C 11.148438 12.390625 11.125 12.378906 11.101562 12.363281 C 11.09375 12.355469 11.085938 12.347656 11.078125 12.34375 C 11.039062 12.3125 11 12.28125 10.964844 12.246094 C 10.921875 12.199219 10.886719 12.148438 10.851562 12.09375 C 10.847656 12.097656 10.84375 12.097656 10.839844 12.097656 C 10.753906 12.152344 10.664062 12.183594 10.566406 12.207031 C 10.488281 12.226562 10.410156 12.238281 10.332031 12.234375 C 10.089844 12.226562 9.859375 12.121094 9.695312 11.945312 C 9.621094 11.867188 9.566406 11.78125 9.527344 11.691406 C 9.449219 11.707031 9.371094 11.714844 9.292969 11.714844 C 9.050781 11.707031 8.824219 11.605469 8.65625 11.425781 C 8.464844 11.222656 8.390625 10.953125 8.421875 10.695312 C 8.425781 10.644531 8.429688 10.589844 8.445312 10.539062 C 8.355469 10.492188 8.277344 10.433594 8.207031 10.359375 L 8.054688 10.511719 C 7.964844 10.601562 7.890625 10.707031 7.824219 10.816406 C 7.675781 11.0625 7.59375 11.34375 7.597656 11.644531 Z M 9.613281 10.347656 L 9.230469 10.703125 C 9.214844 10.71875 9.214844 10.742188 9.207031 10.761719 C 9.191406 10.808594 9.191406 10.855469 9.226562 10.894531 C 9.261719 10.929688 9.300781 10.9375 9.324219 10.933594 C 9.347656 10.933594 9.382812 10.929688 9.414062 10.902344 L 9.476562 10.84375 L 9.917969 10.429688 C 9.8125 10.402344 9.710938 10.375 9.613281 10.347656 Z M 10.875 10.652344 L 10.269531 11.222656 C 10.246094 11.246094 10.238281 11.273438 10.234375 11.300781 C 10.230469 11.339844 10.234375 11.382812 10.265625 11.414062 C 10.300781 11.449219 10.335938 11.457031 10.363281 11.457031 C 10.371094 11.457031 10.386719 11.453125 10.398438 11.453125 C 10.410156 11.449219 10.425781 11.441406 10.441406 11.429688 C 10.445312 11.425781 10.449219 11.425781 10.453125 11.421875 L 11.199219 10.71875 Z M 12.210938 10.894531 L 11.542969 11.523438 C 11.488281 11.570312 11.488281 11.660156 11.539062 11.710938 C 11.570312 11.746094 11.609375 11.753906 11.632812 11.753906 C 11.648438 11.753906 11.671875 11.75 11.699219 11.734375 C 11.707031 11.730469 11.71875 11.726562 11.726562 11.71875 L 11.832031 11.621094 L 12.546875 10.949219 Z M 8.265625 9.046875 C 8.292969 9.0625 8.332031 9.074219 8.363281 9.089844 C 8.457031 9.132812 8.550781 9.171875 8.65625 9.214844 C 8.6875 9.226562 8.71875 9.238281 8.753906 9.253906 C 8.851562 9.289062 8.960938 9.328125 9.070312 9.363281 C 9.101562 9.375 9.128906 9.386719 9.160156 9.394531 C 9.226562 9.417969 9.289062 9.4375 9.359375 9.460938 C 9.496094 9.503906 9.644531 9.546875 9.792969 9.589844 C 9.808594 9.59375 9.820312 9.597656 9.835938 9.601562 C 9.980469 9.640625 10.128906 9.679688 10.28125 9.71875 C 10.285156 9.71875 10.289062 9.71875 10.289062 9.71875 C 10.390625 9.746094 10.488281 9.769531 10.59375 9.792969 C 10.660156 9.808594 10.726562 9.828125 10.796875 9.84375 C 10.851562 9.855469 10.914062 9.867188 10.972656 9.878906 C 11 9.886719 11.027344 9.890625 11.054688 9.898438 C 11.070312 9.902344 11.085938 9.90625 11.101562 9.910156 C 11.191406 9.929688 11.277344 9.949219 11.367188 9.964844 C 11.40625 9.972656 11.441406 9.980469 11.484375 9.988281 C 11.511719 9.996094 11.539062 10 11.570312 10.007812 C 11.632812 10.019531 11.699219 10.03125 11.761719 10.039062 C 11.804688 10.046875 11.847656 10.054688 11.890625 10.0625 C 11.894531 10.0625 11.898438 10.066406 11.902344 10.066406 C 11.925781 10.070312 11.949219 10.074219 11.972656 10.078125 C 12.230469 10.121094 12.496094 10.164062 12.773438 10.203125 C 12.9375 10.226562 13.105469 10.246094 13.277344 10.269531 C 13.445312 10.292969 13.613281 10.308594 13.785156 10.328125 C 13.953125 10.347656 14.125 10.363281 14.300781 10.378906 C 15.492188 10.492188 16.800781 10.5625 18.230469 10.5625 C 19.597656 10.5625 20.855469 10.5 22.003906 10.398438 C 22.214844 10.378906 22.421875 10.355469 22.625 10.335938 C 22.84375 10.3125 23.054688 10.285156 23.265625 10.257812 C 23.769531 10.195312 24.25 10.121094 24.703125 10.042969 C 24.835938 10.019531 24.964844 9.992188 25.09375 9.964844 C 25.121094 9.960938 25.144531 9.957031 25.167969 9.953125 C 25.277344 9.929688 25.386719 9.910156 25.488281 9.886719 C 25.546875 9.875 25.613281 9.863281 25.671875 9.847656 C 25.847656 9.808594 26.011719 9.765625 26.175781 9.726562 C 28.296875 9.191406 29.480469 8.496094 29.480469 7.917969 C 29.480469 7.300781 28.140625 6.542969 25.738281 6 C 25.710938 5.992188 25.679688 5.988281 25.652344 5.980469 C 25.761719 6.605469 25.871094 7.234375 25.980469 7.847656 C 26 7.953125 25.976562 8.058594 25.914062 8.144531 C 25.855469 8.230469 25.761719 8.285156 25.65625 8.304688 C 25.65625 8.304688 25.648438 8.304688 25.644531 8.304688 C 25.59375 8.3125 25.539062 8.320312 25.488281 8.328125 C 25.378906 8.347656 25.265625 8.359375 25.152344 8.375 C 25.132812 8.375 25.117188 8.378906 25.097656 8.382812 C 24.96875 8.402344 24.835938 8.417969 24.703125 8.4375 C 23.796875 8.5625 22.890625 8.667969 21.976562 8.742188 C 21.789062 8.753906 21.601562 8.761719 21.414062 8.773438 C 21.226562 8.785156 21.039062 8.796875 20.851562 8.808594 C 20.175781 8.847656 19.5 8.871094 18.824219 8.878906 C 18.625 8.878906 18.429688 8.890625 18.230469 8.890625 C 17.632812 8.890625 17.039062 8.878906 16.441406 8.855469 C 16.3125 8.851562 16.183594 8.839844 16.054688 8.835938 C 15.46875 8.808594 14.878906 8.773438 14.292969 8.722656 C 14.210938 8.714844 14.128906 8.707031 14.042969 8.699219 C 13.785156 8.675781 13.53125 8.648438 13.273438 8.621094 C 12.980469 8.589844 12.691406 8.5625 12.398438 8.523438 C 12.3125 8.515625 12.226562 8.5 12.140625 8.488281 C 12.011719 8.472656 11.886719 8.453125 11.757812 8.433594 C 11.707031 8.425781 11.652344 8.417969 11.601562 8.410156 C 11.523438 8.402344 11.441406 8.390625 11.363281 8.378906 C 11.34375 8.375 11.320312 8.371094 11.296875 8.371094 C 11.191406 8.355469 11.082031 8.34375 10.972656 8.324219 C 10.917969 8.316406 10.859375 8.308594 10.804688 8.300781 C 10.804688 8.300781 10.804688 8.300781 10.800781 8.300781 C 10.800781 8.300781 10.796875 8.300781 10.796875 8.300781 C 10.695312 8.28125 10.605469 8.226562 10.546875 8.140625 C 10.523438 8.113281 10.511719 8.078125 10.5 8.042969 C 10.496094 8.03125 10.492188 8.023438 10.488281 8.011719 C 10.472656 7.957031 10.46875 7.902344 10.480469 7.847656 C 10.480469 7.832031 10.484375 7.816406 10.488281 7.800781 C 10.496094 7.746094 10.507812 7.691406 10.515625 7.636719 C 10.535156 7.523438 10.558594 7.40625 10.578125 7.292969 C 10.65625 6.859375 10.730469 6.417969 10.808594 5.980469 C 10.765625 5.992188 10.71875 6.003906 10.671875 6.007812 C 8.304688 6.554688 6.980469 7.300781 6.980469 7.914062 C 6.980469 8.269531 7.429688 8.667969 8.265625 9.050781 Z M 11.320312 7.585938 C 11.335938 7.589844 11.355469 7.589844 11.371094 7.59375 C 11.386719 7.59375 11.398438 7.597656 11.410156 7.597656 C 11.542969 7.617188 11.671875 7.632812 11.804688 7.648438 C 11.910156 7.664062 12.019531 7.675781 12.125 7.691406 C 12.332031 7.714844 12.542969 7.746094 12.75 7.773438 C 12.761719 7.773438 12.777344 7.777344 12.789062 7.777344 C 12.957031 7.792969 13.125 7.8125 13.292969 7.832031 C 13.40625 7.84375 13.523438 7.855469 13.640625 7.867188 C 13.890625 7.894531 14.144531 7.917969 14.394531 7.9375 C 14.535156 7.949219 14.671875 7.964844 14.8125 7.976562 C 15.414062 8.019531 16.019531 8.050781 16.621094 8.070312 C 16.996094 8.082031 17.375 8.089844 17.75 8.09375 C 18.261719 8.097656 18.773438 8.09375 19.28125 8.082031 C 19.5625 8.074219 19.84375 8.070312 20.125 8.058594 C 20.238281 8.054688 20.351562 8.042969 20.46875 8.039062 C 20.648438 8.035156 20.824219 8.023438 21.003906 8.011719 C 21.183594 8 21.363281 7.992188 21.542969 7.980469 C 22.585938 7.90625 23.621094 7.792969 24.65625 7.648438 C 24.789062 7.628906 24.917969 7.617188 25.050781 7.597656 C 25.054688 7.597656 25.0625 7.597656 25.070312 7.59375 C 25.09375 7.589844 25.117188 7.585938 25.144531 7.582031 C 25.035156 6.996094 24.933594 6.402344 24.828125 5.804688 C 24.808594 5.695312 24.789062 5.589844 24.769531 5.476562 C 24.699219 5.492188 24.617188 5.507812 24.527344 5.523438 C 24.519531 5.523438 24.515625 5.523438 24.511719 5.523438 C 24.390625 5.542969 24.257812 5.5625 24.113281 5.578125 C 23.957031 5.597656 23.789062 5.609375 23.617188 5.617188 C 23.546875 5.617188 23.472656 5.625 23.402344 5.625 C 23.242188 5.625 23.082031 5.617188 22.921875 5.601562 C 22.855469 5.59375 22.796875 5.558594 22.753906 5.511719 C 22.710938 5.457031 22.683594 5.386719 22.695312 5.3125 C 22.703125 5.230469 22.753906 5.164062 22.820312 5.125 C 22.867188 5.09375 22.921875 5.078125 22.980469 5.082031 C 23.246094 5.109375 23.523438 5.105469 23.78125 5.085938 C 23.949219 5.074219 24.101562 5.058594 24.246094 5.039062 C 24.253906 5.039062 24.261719 5.035156 24.269531 5.035156 C 24.394531 5.015625 24.5 5 24.59375 4.984375 C 24.621094 4.980469 24.644531 4.976562 24.667969 4.96875 C 24.667969 4.96875 24.671875 4.964844 24.675781 4.964844 C 24.660156 4.882812 24.636719 4.808594 24.613281 4.730469 C 24.585938 4.734375 24.554688 4.742188 24.523438 4.746094 C 24.410156 4.769531 24.28125 4.789062 24.132812 4.800781 C 24.113281 4.804688 24.09375 4.804688 24.074219 4.804688 C 23.933594 4.816406 23.78125 4.824219 23.601562 4.828125 C 23.589844 4.828125 23.578125 4.832031 23.558594 4.832031 C 23.558594 4.832031 23.554688 4.832031 23.554688 4.832031 C 23.515625 4.828125 23.480469 4.824219 23.445312 4.808594 C 23.355469 4.773438 23.292969 4.695312 23.28125 4.597656 C 23.28125 4.585938 23.273438 4.578125 23.273438 4.566406 C 23.273438 4.425781 23.390625 4.308594 23.535156 4.308594 C 23.542969 4.308594 23.546875 4.308594 23.554688 4.308594 C 23.554688 4.308594 23.554688 4.308594 23.558594 4.308594 C 23.640625 4.308594 23.710938 4.304688 23.78125 4.300781 C 23.90625 4.296875 24.023438 4.289062 24.121094 4.277344 C 24.214844 4.265625 24.292969 4.257812 24.359375 4.242188 C 24.394531 4.234375 24.417969 4.234375 24.449219 4.226562 C 24.25 3.757812 23.964844 3.339844 23.578125 2.992188 C 23.078125 2.546875 22.546875 2.175781 21.996094 1.863281 C 20.835938 1.207031 19.570312 0.835938 18.214844 0.773438 C 16.957031 0.832031 15.765625 1.164062 14.660156 1.75 C 14.039062 2.082031 13.445312 2.496094 12.882812 2.992188 C 12.492188 3.34375 12.199219 3.773438 12.003906 4.242188 C 11.90625 4.480469 11.824219 4.722656 11.78125 4.980469 C 11.78125 4.980469 11.78125 4.984375 11.777344 4.984375 C 11.777344 4.984375 11.777344 4.988281 11.777344 4.992188 C 11.765625 5.058594 11.753906 5.121094 11.742188 5.1875 C 11.796875 5.210938 11.882812 5.238281 11.996094 5.261719 C 12.015625 5.265625 12.039062 5.269531 12.0625 5.277344 C 12.113281 5.289062 12.167969 5.296875 12.230469 5.304688 C 12.308594 5.316406 12.398438 5.324219 12.496094 5.332031 C 12.625 5.339844 12.761719 5.347656 12.925781 5.347656 C 13.054688 5.347656 13.15625 5.441406 13.179688 5.5625 C 13.179688 5.578125 13.1875 5.589844 13.1875 5.605469 C 13.1875 5.757812 13.058594 5.867188 12.90625 5.867188 C 12.640625 5.867188 12.417969 5.851562 12.230469 5.828125 C 12.082031 5.8125 11.957031 5.789062 11.851562 5.765625 C 11.84375 5.761719 11.835938 5.761719 11.828125 5.761719 C 11.820312 5.757812 11.808594 5.757812 11.800781 5.753906 C 11.746094 5.738281 11.695312 5.726562 11.652344 5.710938 C 11.644531 5.742188 11.640625 5.773438 11.632812 5.804688 C 11.625 5.855469 11.613281 5.910156 11.605469 5.964844 C 11.632812 5.972656 11.671875 5.980469 11.71875 5.988281 C 11.726562 5.988281 11.730469 5.992188 11.742188 5.992188 C 11.839844 6.011719 11.976562 6.035156 12.132812 6.058594 C 12.511719 6.117188 13.015625 6.164062 13.480469 6.113281 C 13.628906 6.097656 13.753906 6.203125 13.769531 6.347656 C 13.785156 6.488281 13.679688 6.617188 13.539062 6.632812 C 13.378906 6.652344 13.21875 6.65625 13.058594 6.65625 C 12.660156 6.65625 12.273438 6.609375 11.972656 6.5625 C 11.820312 6.535156 11.6875 6.511719 11.59375 6.492188 C 11.585938 6.492188 11.578125 6.488281 11.570312 6.488281 C 11.546875 6.484375 11.53125 6.480469 11.515625 6.476562 C 11.449219 6.84375 11.382812 7.214844 11.320312 7.578125 Z M 25.65625 13.304688 C 25.613281 13.289062 25.574219 13.28125 25.53125 13.28125 C 25.445312 13.28125 25.359375 13.3125 25.289062 13.347656 C 25.199219 14.125 25.074219 14.882812 24.898438 15.597656 C 25.007812 15.597656 25.136719 15.550781 25.269531 15.457031 C 25.5 15.292969 25.707031 15.011719 25.832031 14.683594 C 25.960938 14.359375 26 14.011719 25.941406 13.730469 C 25.910156 13.601562 25.839844 13.375 25.65625 13.304688 Z M 24.558594 12.601562 L 24.21875 12.140625 C 23.648438 11.832031 23.152344 11.476562 22.71875 11.097656 C 21.273438 11.257812 19.738281 11.335938 18.230469 11.335938 C 16.753906 11.335938 15.25 11.261719 13.832031 11.109375 C 13.984375 11.273438 14.070312 11.488281 14.070312 11.71875 C 14.074219 11.960938 13.980469 12.191406 13.808594 12.367188 L 12.496094 13.691406 L 12.203125 13.988281 L 12.097656 14.097656 C 12.164062 14.519531 12.242188 14.925781 12.335938 15.3125 C 12.386719 15.511719 12.441406 15.703125 12.496094 15.890625 C 12.96875 17.515625 13.71875 18.78125 14.867188 19.601562 C 14.988281 19.6875 15.117188 19.761719 15.246094 19.835938 C 16.058594 20.316406 17.042969 20.609375 18.25 20.671875 C 19.460938 20.609375 20.441406 20.3125 21.253906 19.824219 C 21.371094 19.753906 21.492188 19.6875 21.601562 19.605469 C 22.746094 18.789062 23.492188 17.519531 23.96875 15.894531 C 24.023438 15.703125 24.078125 15.515625 24.125 15.316406 C 24.253906 14.792969 24.355469 14.234375 24.4375 13.648438 C 24.46875 13.417969 24.496094 13.179688 24.519531 12.941406 C 24.53125 12.828125 24.546875 12.71875 24.558594 12.601562 Z M 19.726562 25.035156 L 21.855469 25.65625 L 22.96875 21.875 L 22.128906 21.875 Z M 15.578125 22.21875 L 16.195312 23.027344 L 20.269531 23.027344 L 20.882812 22.21875 L 20.890625 22.207031 L 20.890625 20.898438 C 20.136719 21.207031 19.265625 21.398438 18.25 21.449219 C 17.21875 21.398438 16.332031 21.203125 15.570312 20.890625 L 15.570312 22.207031 Z M 16.734375 25.035156 L 14.335938 21.875 L 13.492188 21.875 L 14.605469 25.65625 Z M 11.566406 15.601562 C 11.492188 15.304688 11.429688 15 11.371094 14.691406 C 11.175781 14.804688 10.964844 14.886719 10.75 14.9375 C 10.871094 15.15625 11.027344 15.339844 11.195312 15.457031 C 11.277344 15.519531 11.421875 15.597656 11.566406 15.601562 Z M 44 5.230469 L 44 13.898438 C 44 14.140625 43.890625 14.355469 43.71875 14.496094 C 43.53125 14.765625 43.21875 14.941406 42.863281 14.941406 L 39.675781 14.941406 C 39.703125 15 39.714844 15.066406 39.714844 15.132812 L 39.714844 18.445312 C 39.714844 18.707031 39.523438 18.914062 39.273438 18.953125 L 39.273438 30.660156 C 39.601562 30.816406 39.832031 31.148438 39.832031 31.535156 C 39.832031 31.757812 39.757812 31.957031 39.632812 32.121094 C 39.757812 32.285156 39.832031 32.484375 39.832031 32.703125 C 39.832031 32.925781 39.757812 33.125 39.632812 33.289062 C 39.757812 33.453125 39.832031 33.652344 39.832031 33.875 C 39.832031 34.09375 39.757812 34.292969 39.632812 34.457031 C 39.757812 34.621094 39.832031 34.820312 39.832031 35.042969 C 39.832031 35.429688 39.601562 35.761719 39.273438 35.917969 L 39.273438 42.246094 C 39.273438 42.535156 39.039062 42.769531 38.75 42.769531 L 37.839844 42.769531 C 37.550781 42.769531 37.316406 42.535156 37.316406 42.246094 L 37.316406 36.09375 L 35.746094 36.09375 C 35.625 36.09375 35.511719 36.078125 35.398438 36.058594 L 31.03125 36.140625 C 31.015625 36.144531 31 36.144531 30.984375 36.144531 C 30.121094 36.144531 29.320312 35.691406 28.871094 34.953125 L 26.351562 30.816406 L 26.351562 41.859375 C 26.351562 42.359375 25.945312 42.769531 25.449219 42.769531 L 11.011719 42.769531 C 10.515625 42.769531 10.109375 42.359375 10.109375 41.859375 L 10.109375 26.472656 L 1.246094 21.394531 C 0.574219 21.011719 0.121094 20.335938 0.0195312 19.566406 C -0.078125 18.800781 0.183594 18.03125 0.730469 17.488281 L 6.835938 11.429688 C 6.882812 10.878906 7.105469 10.363281 7.5 9.964844 L 7.78125 9.675781 C 6.792969 9.191406 6.199219 8.601562 6.199219 7.914062 C 6.199219 6.65625 8.179688 5.722656 10.957031 5.152344 C 10.972656 5.050781 10.992188 4.953125 11.007812 4.851562 C 11.171875 3.90625 11.640625 3.066406 12.363281 2.417969 C 14.066406 0.914062 16.03125 0.101562 18.214844 0 C 20.433594 0.101562 22.402344 0.914062 24.097656 2.414062 C 24.097656 2.414062 24.097656 2.417969 24.097656 2.417969 C 24.816406 3.0625 25.285156 3.902344 25.453125 4.851562 C 25.46875 4.953125 25.488281 5.050781 25.507812 5.152344 C 28.28125 5.722656 30.265625 6.652344 30.265625 7.910156 C 30.265625 9.074219 28.578125 9.953125 26.132812 10.53125 C 26.066406 11.425781 25.9375 12.152344 25.851562 12.554688 C 25.882812 12.5625 25.910156 12.5625 25.9375 12.574219 C 26.324219 12.726562 26.601562 13.085938 26.707031 13.570312 C 26.796875 14 26.742188 14.496094 26.5625 14.96875 C 26.378906 15.441406 26.078125 15.839844 25.71875 16.09375 C 25.453125 16.285156 25.164062 16.382812 24.886719 16.382812 C 24.820312 16.382812 24.75 16.375 24.683594 16.363281 C 24.132812 18.136719 23.203125 19.609375 21.671875 20.511719 L 21.671875 21.226562 C 21.785156 21.140625 21.921875 21.09375 22.0625 21.09375 L 23.144531 21.09375 C 23.351562 21.09375 23.539062 21.1875 23.664062 21.355469 C 23.769531 21.492188 23.808594 21.660156 23.785156 21.828125 C 23.78125 21.863281 23.777344 21.894531 23.769531 21.929688 L 23.683594 22.21875 L 22.570312 26.003906 C 22.546875 26.070312 22.519531 26.132812 22.480469 26.1875 L 22.480469 29.460938 L 13.984375 29.460938 L 13.984375 26.1875 C 13.945312 26.132812 13.914062 26.070312 13.894531 26.003906 L 12.695312 21.925781 C 12.683594 21.894531 12.679688 21.859375 12.675781 21.828125 C 12.652344 21.660156 12.695312 21.492188 12.796875 21.351562 C 12.921875 21.1875 13.109375 21.09375 13.320312 21.09375 L 14.398438 21.09375 C 14.539062 21.09375 14.675781 21.140625 14.789062 21.226562 L 14.789062 20.5 C 13.261719 19.597656 12.335938 18.128906 11.78125 16.363281 C 11.714844 16.375 11.644531 16.382812 11.574219 16.382812 C 11.296875 16.382812 11.007812 16.285156 10.742188 16.09375 C 10.453125 15.890625 10.210938 15.589844 10.027344 15.238281 L 6.527344 18.710938 L 12.003906 21.828125 L 12.003906 29.769531 L 11.097656 41.96875 L 25.363281 41.96875 L 24.460938 29.777344 L 24.460938 21.828125 L 25.449219 21.828125 C 25.644531 21.828125 25.824219 21.894531 25.96875 22 C 26.566406 22.160156 27.105469 22.535156 27.453125 23.101562 L 32.359375 31.164062 L 34.292969 31.125 L 35.164062 29.25 C 35.273438 29.023438 35.46875 28.84375 35.714844 28.753906 C 36 28.648438 36.332031 28.667969 36.625 28.804688 C 36.917969 28.941406 37.144531 29.183594 37.25 29.46875 C 37.339844 29.71875 37.332031 29.980469 37.222656 30.210938 L 37.097656 30.484375 L 37.316406 30.484375 L 37.316406 18.949219 C 37.066406 18.910156 36.871094 18.707031 36.871094 18.445312 L 36.871094 15.128906 C 36.871094 15.0625 36.890625 15 36.910156 14.941406 L 33.722656 14.941406 C 33.371094 14.941406 33.058594 14.765625 32.871094 14.496094 C 32.699219 14.355469 32.589844 14.140625 32.589844 13.898438 L 32.589844 5.226562 C 32.589844 4.796875 32.941406 4.445312 33.371094 4.445312 C 33.800781 4.445312 34.152344 4.796875 34.152344 5.226562 L 34.152344 12.855469 L 35.871094 12.855469 L 35.871094 5.226562 C 35.871094 4.796875 36.222656 4.445312 36.652344 4.445312 C 37.085938 4.445312 37.433594 4.796875 37.433594 5.226562 L 37.433594 12.855469 L 39.15625 12.855469 L 39.15625 5.226562 C 39.15625 4.796875 39.503906 4.445312 39.933594 4.445312 C 40.367188 4.445312 40.71875 4.796875 40.71875 5.226562 L 40.71875 12.855469 L 42.433594 12.855469 L 42.433594 5.226562 C 42.433594 4.796875 42.785156 4.445312 43.21875 4.445312 C 43.652344 4.445312 44 4.796875 44 5.226562 Z M 19.753906 17.71875 C 19.578125 17.71875 19.433594 17.835938 19.382812 17.992188 C 19.25 18.070312 18.839844 18.183594 18.230469 18.183594 C 17.621094 18.183594 17.210938 18.070312 17.082031 17.992188 C 17.03125 17.832031 16.882812 17.71875 16.707031 17.71875 C 16.492188 17.71875 16.316406 17.894531 16.316406 18.109375 C 16.316406 18.742188 17.304688 18.96875 18.230469 18.96875 C 19.15625 18.96875 20.144531 18.742188 20.144531 18.109375 C 20.144531 17.894531 19.96875 17.71875 19.753906 17.71875 Z M 21.746094 12.425781 C 21.328125 12.425781 20.988281 12.765625 20.988281 13.1875 C 20.988281 13.609375 21.328125 13.949219 21.746094 13.949219 C 22.167969 13.949219 22.511719 13.609375 22.511719 13.1875 C 22.511719 12.765625 22.167969 12.425781 21.746094 12.425781 Z M 14.714844 12.425781 C 14.292969 12.425781 13.953125 12.765625 13.953125 13.1875 C 13.953125 13.609375 14.292969 13.949219 14.714844 13.949219 C 15.132812 13.949219 15.476562 13.609375 15.476562 13.1875 C 15.476562 12.765625 15.132812 12.425781 14.714844 12.425781 Z M 17.34375 15.703125 L 17.34375 14.605469 C 17.34375 14.390625 17.519531 14.214844 17.734375 14.214844 C 17.949219 14.214844 18.125 14.390625 18.125 14.605469 L 18.125 15.613281 L 18.726562 15.613281 C 18.941406 15.613281 19.117188 15.789062 19.117188 16.003906 C 19.117188 16.21875 18.941406 16.394531 18.726562 16.394531 L 18.035156 16.394531 C 17.65625 16.394531 17.34375 16.085938 17.34375 15.703125" fill="#7c8a80"/></g></g></svg>