<?xml version="1.0" encoding="UTF-8"?><svg xmlns="http://www.w3.org/2000/svg" xmlns:xlink="http://www.w3.org/1999/xlink" enable-background="new 0 0 128 128" fill="#cdfaba" height="128" preserveAspectRatio="xMidYMid meet" version="1" viewBox="9.0 0.0 110.0 128.0" width="110" zoomAndPan="magnify">
 <g id="change1_1"><path d="m112 34.9c0-0.5-0.5-0.9-1-0.9h-18v-5c0-16-13-29-29-29s-29 13-29 29v5h-18c-0.5 0-1 0.4-1 0.9l-7 92c0 0.3 0.1 0.6 0.3 0.8s0.5 0.3 0.7 0.3h108c0.3 0 0.5-0.1 0.7-0.3s0.3-0.5 0.3-0.8zm-48-26.9c11.6 0 21 9.4 21 21v5h-42v-5c0-11.6 9.4-21 21-21zm-25 54c-5.5 0-10-4.5-10-10 0-4 2-7.6 6-9.2v9.2c0 2.2 1.8 4 4 4s4-1.8 4-4v-9.2c4 1.6 6 5.2 6 9.2 0 5.5-4.5 10-10 10zm50 0c-5.5 0-10-4.5-10-10 0-4 2-7.6 6-9.2v9.2c0 2.2 1.8 4 4 4s4-1.8 4-4v-9.2c4 1.6 6 5.2 6 9.2 0 5.5-4.5 10-10 10z" fill="inherit"/></g>
</svg>